<svg width="83" height="83" viewBox="0 0 83 83" fill="none" xmlns="http://www.w3.org/2000/svg">
<ellipse opacity="0.4" cx="41" cy="41" rx="28" ry="28" fill="#C9E0FF"/>
<g opacity="0.3" filter="url(#filter0_f_704_4215)">
<ellipse cx="41.35" cy="41.3498" rx="22.05" ry="22.05" fill="url(#paint0_radial_704_4215)"/>
</g>
<path fill-rule="evenodd" clip-rule="evenodd" d="M47.7023 48.4528L50.8 32.6259C50.8 31.5685 49.3698 32.2071 49.3698 32.2139L31.9631 39.1283C31.9631 39.1283 31.1362 39.4099 31.2039 39.9386C31.2717 40.4673 31.9428 40.7076 31.9428 40.7076L36.3216 42.1976L38.1899 43.1094C37.9481 42.3352 37.7285 41.6304 37.7285 41.6304L44.7749 37.2541C44.7749 37.2541 45.1838 37.0142 45.1656 37.2541C45.1656 37.2541 45.2383 37.2986 45.0202 37.4941C44.8021 37.694 39.4867 42.3679 39.4867 42.3679L39.1831 44.8795L39.104 45.5627C39.263 45.6338 39.4129 45.5227 39.4129 45.5227L40.416 44.6265L46.0755 49.0227C47.2685 49.5514 47.7023 48.4528 47.7023 48.4528Z" fill="url(#paint1_linear_704_4215)"/>
<defs>
<filter id="filter0_f_704_4215" x="0.633339" y="0.633141" width="81.4333" height="81.4329" filterUnits="userSpaceOnUse" color-interpolation-filters="sRGB">
<feFlood flood-opacity="0" result="BackgroundImageFix"/>
<feBlend mode="normal" in="SourceGraphic" in2="BackgroundImageFix" result="shape"/>
<feGaussianBlur stdDeviation="9.33333" result="effect1_foregroundBlur_704_4215"/>
</filter>
<radialGradient id="paint0_radial_704_4215" cx="0" cy="0" r="1" gradientUnits="userSpaceOnUse" gradientTransform="translate(41.35 41.3498) rotate(90) scale(22.05 22.05)">
<stop stop-color="white"/>
<stop offset="1" stop-color="white" stop-opacity="0"/>
</radialGradient>
<linearGradient id="paint1_linear_704_4215" x1="31.2" y1="32.0166" x2="50.2662" y2="35.2069" gradientUnits="userSpaceOnUse">
<stop stop-color="#007CFF"/>
<stop offset="0.994833" stop-color="#094AC8"/>
</linearGradient>
</defs>
</svg>
