<svg width="120" height="120" viewBox="0 0 120 120" fill="none" xmlns="http://www.w3.org/2000/svg">
<g filter="url(#filter0_b_704_9838)">
<path d="M0 90.7692C0 40.6388 40.6388 0 90.7692 0H120V120H0V90.7692Z" fill="url(#paint0_linear_704_9838)" fill-opacity="0.28"/>
</g>
<g filter="url(#filter1_b_704_9838)">
<path d="M38 91.8462C38 62.1077 62.1077 38 91.8461 38H120V120H38V91.8462Z" fill="url(#paint1_linear_704_9838)" fill-opacity="0.7"/>
</g>
<path d="M87.125 77.2213C91.4214 79.7018 93.5696 80.9421 93.9231 82.7196C94.0256 83.2348 94.0256 83.7652 93.9231 84.2804C93.5696 86.0579 91.4214 87.2982 87.125 89.7787C82.8286 92.2592 80.6804 93.4995 78.9642 92.9169C78.4668 92.748 78.0075 92.4829 77.6126 92.1365C76.25 90.9415 76.25 88.461 76.25 83.5C76.25 78.539 76.25 76.0585 77.6126 74.8635C78.0075 74.5171 78.4668 74.252 78.9642 74.0831C80.6804 73.5005 82.8286 74.7408 87.125 77.2213Z" fill="white"/>
<defs>
<filter id="filter0_b_704_9838" x="-14.9919" y="-14.9919" width="149.984" height="149.984" filterUnits="userSpaceOnUse" color-interpolation-filters="sRGB">
<feFlood flood-opacity="0" result="BackgroundImageFix"/>
<feGaussianBlur in="BackgroundImageFix" stdDeviation="7.49593"/>
<feComposite in2="SourceAlpha" operator="in" result="effect1_backgroundBlur_704_9838"/>
<feBlend mode="normal" in="SourceGraphic" in2="effect1_backgroundBlur_704_9838" result="shape"/>
</filter>
<filter id="filter1_b_704_9838" x="27.7171" y="27.7171" width="102.566" height="102.566" filterUnits="userSpaceOnUse" color-interpolation-filters="sRGB">
<feFlood flood-opacity="0" result="BackgroundImageFix"/>
<feGaussianBlur in="BackgroundImageFix" stdDeviation="5.14144"/>
<feComposite in2="SourceAlpha" operator="in" result="effect1_backgroundBlur_704_9838"/>
<feBlend mode="normal" in="SourceGraphic" in2="effect1_backgroundBlur_704_9838" result="shape"/>
</filter>
<linearGradient id="paint0_linear_704_9838" x1="0" y1="0" x2="117.482" y2="17.2007" gradientUnits="userSpaceOnUse">
<stop stop-color="#007CFF"/>
<stop offset="0.994833" stop-color="#094AC8"/>
</linearGradient>
<linearGradient id="paint1_linear_704_9838" x1="38" y1="38" x2="118.279" y2="49.7538" gradientUnits="userSpaceOnUse">
<stop stop-color="#007CFF"/>
<stop offset="0.994833" stop-color="#094AC8"/>
</linearGradient>
</defs>
</svg>
