<svg width="72" height="74" viewBox="0 0 72 74" fill="none" xmlns="http://www.w3.org/2000/svg">
<g clip-path="url(#clip0_704_4179)">
<path d="M7 0H0V5H7V0Z" fill="#BA2148"/>
<path d="M72 67H67V74H72V67Z" fill="#BA2148"/>
<path d="M0 0H21.4737L72 52.3103V74L0 0Z" fill="url(#paint0_linear_704_4179)"/>
<path d="M52.9881 37.6584C53.0312 38.7129 52.678 39.6102 51.9283 40.3504C51.1785 41.0905 50.2786 41.4304 49.2285 41.3701C48.1858 41.3025 47.2553 40.8459 46.4371 40.0003L45.3932 38.9217L42.8354 41.4469L41.1722 39.7282L49 32L51.7071 34.7974C52.5253 35.643 52.9523 36.5966 52.9881 37.6584ZM49.1509 39.1289C49.5935 39.1555 49.9801 39.0056 50.3109 38.679C50.6416 38.3525 50.7989 37.9655 50.7826 37.518C50.7664 37.0705 50.5671 36.6492 50.1847 36.254L49.1638 35.1991L46.8926 37.4413L47.9135 38.4963C48.2959 38.8914 48.7083 39.1023 49.1509 39.1289Z" fill="white"/>
<path d="M37.1722 35.7282L45 28L46.3908 29.4372L38.563 37.1654L37.1722 35.7282Z" fill="white"/>
<path d="M32.3025 29.963L37 19L38.6773 20.7333L35.3893 28.3186L42.9401 25.1383L44.6495 26.9048L33.6806 31.3871L32.3025 29.963Z" fill="white"/>
</g>
<defs>
<linearGradient id="paint0_linear_704_4179" x1="10.9795" y1="-0.487304" x2="72.0011" y2="73.4009" gradientUnits="userSpaceOnUse">
<stop stop-color="#FF5B8C"/>
<stop offset="1" stop-color="#FF0099"/>
</linearGradient>
<clipPath id="clip0_704_4179">
<rect width="72" height="74" fill="white"/>
</clipPath>
</defs>
</svg>
