<svg width="435" height="54" viewBox="0 0 435 54" fill="none" xmlns="http://www.w3.org/2000/svg">
<path d="M5.0321 27.9469C6.96477 30.838 8.03847 31.8552 9.05849 32.7654C2.13311 42.2416 9.86377 47.3813 14.3733 47.2207C19.205 47.0486 20.6545 46.7388 40.4643 27.6257C41.1085 28.2146 42.558 29.5531 44.3296 32.2835C40.2495 36.0847 31.7029 44.0405 30.1567 45.4539C23.3046 51.7179 19.6882 53.324 14.3733 53.324C5.03201 53.324 -6.95042 41.567 5.0321 27.9469Z" fill="url(#paint0_linear_704_9071)"/>
<path d="M29.0712 13.8128C29.6066 13.1704 31.3198 11.4358 33.8896 9.63687C51.8785 26.9832 54.6089 32.7332 54.6089 39.0293C54.6089 48.345 46.4176 53.324 39.993 53.324C36.4595 53.324 31.5447 51.5573 28.5894 48.9874C29.6066 48.1844 31.9623 46.1927 33.2472 44.6508C39.993 49.9511 48.5056 46.7388 48.5056 39.0293C49.148 32.6047 35.4958 20.5587 29.0712 13.8128Z" fill="url(#paint1_linear_704_9071)"/>
<path d="M26.6621 4.32047L21.8437 8.32091C19.4345 6.4007 17.5071 5.92065 14.7767 5.92065C11.0504 5.92065 7.04111 8.48092 6.74593 13.9215C6.4247 19.8422 12.2068 24.4827 26.0197 38.8842C24.8632 40.2924 22.5397 42.2446 21.5225 43.0447C4.49733 26.8829 0.642578 21.1223 0.642578 13.9215C0.642578 4.19246 9.95822 0 14.7767 0C20.0769 0 24.0923 2.40026 26.6621 4.32047Z" fill="url(#paint2_linear_704_9071)"/>
<path d="M40.1458 0C34.879 0 30.3509 0.642458 10.2793 20.7193C12.3667 23.6103 14.4542 25.3771 14.4542 25.3771C27.9423 12.6885 34.0441 5.94274 40.1458 5.94274C45.1557 5.81425 52.8311 11.7249 45.9264 20.398C45.9264 20.398 46.7293 21.0405 50.1013 25.3771C53.1843 22.4218 54.7243 17.9888 54.9185 13.8128C55.2247 7.22765 49.459 0 40.1458 0Z" fill="url(#paint3_linear_704_9071)"/>
<path d="M222.504 34.3715V22.5444H218.596V19.691H229.472V22.5444H225.522V34.3715H222.504Z" fill="#0F256B"/>
<path d="M208.588 34.3715V19.691H217.521V22.5444H211.587V25.5839H216.239V28.4373H211.587V34.3715H208.588Z" fill="#0F256B"/>
<path d="M202.329 34.3715V19.691H205.327V34.3715H202.329Z" fill="#0F256B"/>
<path d="M190.94 34.3715V19.691H193.939V31.5181H200.224V34.3715H190.94Z" fill="#0F256B"/>
<path d="M182.207 29.9467V27.2173H188.12V29.9467H182.207Z" fill="#0F256B"/>
<path d="M164.388 19.691H167.117L171.893 26.2455L176.67 19.691H179.399V34.3715H176.401V24.8188L171.893 31.0012L167.386 24.8188V34.3715H164.388V19.691Z" fill="#0F256B"/>
<path d="M155.316 34.6196C153.538 34.6196 152.097 34.0682 150.995 32.9655C149.892 31.8627 149.341 30.4016 149.341 28.582V19.691H152.339V28.6234C152.339 29.5883 152.608 30.3464 153.145 30.8978C153.683 31.4492 154.406 31.7249 155.316 31.7249C156.226 31.7249 156.95 31.4492 157.487 30.8978C158.025 30.3464 158.294 29.5883 158.294 28.6234V19.691H161.292V28.582C161.292 30.3878 160.734 31.8489 159.617 32.9655C158.5 34.0682 157.067 34.6196 155.316 34.6196Z" fill="#0F256B"/>
<path d="M140.463 34.3715V22.5444H136.555V19.691H147.431V22.5444H143.482V34.3715H140.463Z" fill="#0F256B"/>
<path d="M134.487 34.3715H131.903L124.376 24.7981V34.3715H121.378V19.691H123.963L131.489 29.2643V19.691H134.487V34.3715Z" fill="#0F256B"/>
<path d="M104.399 34.3715L110.726 19.691H113.394L119.741 34.3715H116.598L115.172 31.0219H108.907L107.501 34.3715H104.399ZM112.05 23.6402L110.023 28.3959H114.055L112.05 23.6402Z" fill="#0F256B"/>
<path d="M97.5059 34.6196C95.7277 34.6196 94.2872 34.0682 93.1844 32.9655C92.0817 31.8627 91.5303 30.4016 91.5303 28.582V19.691H94.5284V28.6234C94.5284 29.5883 94.7972 30.3464 95.3348 30.8978C95.8724 31.4492 96.5961 31.7249 97.5059 31.7249C98.4157 31.7249 99.1393 31.4492 99.6769 30.8978C100.215 30.3464 100.483 29.5883 100.483 28.6234V19.691H103.481V28.582C103.481 30.3878 102.923 31.8489 101.807 32.9655C100.69 34.0682 99.2565 34.6196 97.5059 34.6196Z" fill="#0F256B"/>
<path d="M81.2725 34.6196C79.1772 34.6196 77.3852 33.8822 75.8965 32.4072C74.4216 30.9185 73.6841 29.1265 73.6841 27.0312C73.6841 24.936 74.4216 23.1509 75.8965 21.6759C77.3852 20.1872 79.1772 19.4428 81.2725 19.4428C83.3677 19.4428 85.1528 20.1872 86.6278 21.6759C88.1165 23.1509 88.8609 24.936 88.8609 27.0312C88.8609 28.5062 88.4611 29.8777 87.6616 31.1459L91.5695 34.3715H87.3515L85.8214 33.1102C84.5118 34.1165 82.9955 34.6196 81.2725 34.6196ZM81.2725 31.7249C82.0858 31.7249 82.8163 31.5319 83.4642 31.1459L81.3138 29.347L83.03 27.2794L85.3251 29.2023C85.6697 28.5269 85.842 27.8032 85.842 27.0312C85.842 25.7355 85.394 24.6327 84.4981 23.7229C83.6158 22.7994 82.5406 22.3376 81.2725 22.3376C80.0043 22.3376 78.9222 22.7994 78.0262 23.7229C77.144 24.6327 76.7029 25.7355 76.7029 27.0312C76.7029 28.327 77.144 29.4366 78.0262 30.3602C78.9222 31.27 80.0043 31.7249 81.2725 31.7249Z" fill="#0F256B"/>
<line x1="250.5" y1="1.5" x2="250.5" y2="51.5" stroke="#D1E1F6"/>
<path d="M275.236 21.654C274.041 21.654 273.005 21.318 272.128 20.646C271.26 19.974 270.709 19.162 270.476 18.21H271.848C272.081 18.854 272.501 19.386 273.108 19.806C273.724 20.2167 274.433 20.422 275.236 20.422C276.235 20.422 277.089 20.1093 277.798 19.484C278.507 18.8493 278.927 18.0467 279.058 17.076H273.934V15.872H279.044C278.895 14.92 278.47 14.1407 277.77 13.534C277.07 12.918 276.225 12.61 275.236 12.61C274.433 12.61 273.724 12.82 273.108 13.24C272.501 13.6507 272.081 14.1827 271.848 14.836H270.476C270.709 13.884 271.26 13.072 272.128 12.4C272.996 11.7187 274.032 11.378 275.236 11.378C276.701 11.378 277.924 11.8727 278.904 12.862C279.893 13.842 280.388 15.06 280.388 16.516C280.388 17.972 279.893 19.1947 278.904 20.184C277.924 21.164 276.701 21.654 275.236 21.654ZM286.858 21.5L283.358 18.378V21.5H282.154V14.5H283.358V17.608L286.466 14.5H287.992L284.562 17.93L288.51 21.5H286.858ZM292.207 21.64C291.152 21.64 290.28 21.29 289.589 20.59C288.898 19.8807 288.553 19.0173 288.553 18C288.553 16.9827 288.898 16.124 289.589 15.424C290.28 14.7147 291.152 14.36 292.207 14.36C293.075 14.36 293.826 14.6027 294.461 15.088C295.096 15.564 295.52 16.1893 295.735 16.964H294.447C294.279 16.5067 293.999 16.1427 293.607 15.872C293.215 15.6013 292.748 15.466 292.207 15.466C291.488 15.466 290.9 15.7087 290.443 16.194C289.995 16.6793 289.771 17.2813 289.771 18C289.771 18.7187 289.995 19.3207 290.443 19.806C290.9 20.2913 291.488 20.534 292.207 20.534C292.748 20.534 293.215 20.3987 293.607 20.128C293.999 19.8573 294.279 19.4933 294.447 19.036H295.735C295.53 19.8107 295.11 20.4407 294.475 20.926C293.84 21.402 293.084 21.64 292.207 21.64ZM297.329 21.5V14.5H303.405V21.5H302.201V15.606H298.533V21.5H297.329ZM308.777 21.64C307.722 21.64 306.845 21.29 306.145 20.59C305.454 19.8807 305.109 19.0173 305.109 18C305.109 16.9827 305.454 16.124 306.145 15.424C306.845 14.7147 307.722 14.36 308.777 14.36C309.822 14.36 310.69 14.7147 311.381 15.424C312.081 16.124 312.431 16.9827 312.431 18C312.431 19.0173 312.081 19.8807 311.381 20.59C310.69 21.29 309.822 21.64 308.777 21.64ZM307.013 19.792C307.47 20.2773 308.058 20.52 308.777 20.52C309.496 20.52 310.079 20.2773 310.527 19.792C310.975 19.3067 311.199 18.7093 311.199 18C311.199 17.2907 310.975 16.6933 310.527 16.208C310.079 15.7227 309.496 15.48 308.777 15.48C308.058 15.48 307.47 15.7227 307.013 16.208C306.565 16.6933 306.341 17.2907 306.341 18C306.341 18.7093 306.565 19.3067 307.013 19.792ZM314.159 21.5V14.5H315.363V17.384H319.185V14.5H320.389V21.5H319.185V18.476H315.363V21.5H314.159ZM325.645 21.64C324.628 21.64 323.783 21.2947 323.111 20.604C322.449 19.9133 322.117 19.0453 322.117 18C322.117 16.9453 322.439 16.0773 323.083 15.396C323.737 14.7053 324.6 14.36 325.673 14.36C326.756 14.36 327.605 14.7427 328.221 15.508C328.837 16.2733 329.108 17.2113 329.033 18.322H323.335C323.354 18.9567 323.587 19.4887 324.035 19.918C324.483 20.338 325.025 20.548 325.659 20.548C326.611 20.548 327.288 20.156 327.689 19.372H328.921C328.744 20.0253 328.366 20.5667 327.787 20.996C327.209 21.4253 326.495 21.64 325.645 21.64ZM327.017 15.928C326.635 15.592 326.173 15.424 325.631 15.424C325.09 15.424 324.605 15.5873 324.175 15.914C323.755 16.2407 323.494 16.726 323.391 17.37H327.759C327.647 16.7353 327.4 16.2547 327.017 15.928ZM330.771 21.5V14.5H331.975V17.384H335.797V14.5H337.001V21.5H335.797V18.476H331.975V21.5H330.771ZM346.373 20.394V23.264H345.239V21.5H339.275V14.5H340.479V20.394H344.091V14.5H345.295V20.394H346.373ZM349.062 21.5H347.984V14.5H349.188V19.638L353.136 14.5H354.2V21.5H353.01V16.362L349.062 21.5ZM359.372 21.64C358.401 21.64 357.584 21.2853 356.922 20.576C356.268 19.8667 355.942 19.008 355.942 18C355.942 16.992 356.268 16.1333 356.922 15.424C357.584 14.7147 358.401 14.36 359.372 14.36C359.885 14.36 360.361 14.4767 360.8 14.71C361.248 14.934 361.593 15.2233 361.836 15.578V14.5H363.04V21.5H361.836V20.422C361.593 20.7767 361.248 21.0707 360.8 21.304C360.361 21.528 359.885 21.64 359.372 21.64ZM359.554 20.534C360.244 20.534 360.814 20.2913 361.262 19.806C361.71 19.3207 361.934 18.7187 361.934 18C361.934 17.2813 361.71 16.6793 361.262 16.194C360.814 15.7087 360.244 15.466 359.554 15.466C358.854 15.466 358.28 15.7087 357.832 16.194C357.384 16.6793 357.16 17.2813 357.16 18C357.16 18.7187 357.384 19.3207 357.832 19.806C358.28 20.2913 358.854 20.534 359.554 20.534ZM365.096 21.598C364.779 21.598 364.569 21.584 364.466 21.556V20.478C364.531 20.4967 364.681 20.506 364.914 20.506C365.203 20.506 365.418 20.408 365.558 20.212C365.698 20.0067 365.768 19.6473 365.768 19.134V14.5H371.172V21.5H369.968V15.606H366.972V19.386C366.972 20.1047 366.799 20.6553 366.454 21.038C366.109 21.4113 365.656 21.598 365.096 21.598ZM373.454 21.5V14.5H374.658V17.02H376.282C377.122 17.02 377.757 17.2393 378.186 17.678C378.625 18.1167 378.844 18.6393 378.844 19.246C378.844 19.862 378.625 20.394 378.186 20.842C377.748 21.2807 377.108 21.5 376.268 21.5H373.454ZM374.658 18.112V20.408H376.226C376.674 20.408 377.02 20.3053 377.262 20.1C377.514 19.8947 377.64 19.61 377.64 19.246C377.64 18.882 377.519 18.602 377.276 18.406C377.034 18.21 376.688 18.112 376.24 18.112H374.658ZM380.4 21.5V14.5H381.604V17.384H385.426V14.5H386.63V21.5H385.426V18.476H381.604V21.5H380.4ZM395.372 21.5V14.5H396.576V21.5H395.372ZM388.904 21.5V14.5H390.108V17.02H391.732C392.572 17.02 393.206 17.2393 393.636 17.678C394.074 18.1167 394.294 18.6393 394.294 19.246C394.294 19.862 394.074 20.394 393.636 20.842C393.197 21.2807 392.558 21.5 391.718 21.5H388.904ZM390.108 18.112V20.408H391.676C392.124 20.408 392.469 20.3053 392.712 20.1C392.964 19.8947 393.09 19.61 393.09 19.246C393.09 18.882 392.968 18.602 392.726 18.406C392.483 18.21 392.138 18.112 391.69 18.112H390.108ZM399.935 21.5H398.857V14.5H400.061V19.638L404.009 14.5H405.073V21.5H403.883V16.362L399.935 21.5ZM403.659 12.792C403.239 13.2027 402.711 13.408 402.077 13.408C401.442 13.408 400.91 13.2027 400.481 12.792C400.061 12.3813 399.851 11.8447 399.851 11.182V11H400.803V11.182C400.803 11.63 400.919 11.98 401.153 12.232C401.395 12.4747 401.703 12.596 402.077 12.596C402.45 12.596 402.753 12.4747 402.987 12.232C403.229 11.98 403.351 11.63 403.351 11.182V11H404.303V11.182C404.303 11.8447 404.088 12.3813 403.659 12.792ZM272.338 44.426H271.134V34.5H272.338V35.578C272.581 35.2233 272.921 34.934 273.36 34.71C273.808 34.4767 274.289 34.36 274.802 34.36C275.773 34.36 276.585 34.7147 277.238 35.424C277.901 36.1333 278.232 36.992 278.232 38C278.232 39.008 277.901 39.8667 277.238 40.576C276.585 41.2853 275.773 41.64 274.802 41.64C274.289 41.64 273.808 41.528 273.36 41.304C272.921 41.0707 272.581 40.7767 272.338 40.422V44.426ZM272.912 39.806C273.36 40.2913 273.929 40.534 274.62 40.534C275.311 40.534 275.88 40.2913 276.328 39.806C276.776 39.3207 277 38.7187 277 38C277 37.2813 276.776 36.6793 276.328 36.194C275.88 35.7087 275.311 35.466 274.62 35.466C273.929 35.466 273.36 35.7087 272.912 36.194C272.464 36.6793 272.24 37.2813 272.24 38C272.24 38.7187 272.464 39.3207 272.912 39.806ZM283.074 41.64C282.019 41.64 281.142 41.29 280.442 40.59C279.751 39.8807 279.406 39.0173 279.406 38C279.406 36.9827 279.751 36.124 280.442 35.424C281.142 34.7147 282.019 34.36 283.074 34.36C284.119 34.36 284.987 34.7147 285.678 35.424C286.378 36.124 286.728 36.9827 286.728 38C286.728 39.0173 286.378 39.8807 285.678 40.59C284.987 41.29 284.119 41.64 283.074 41.64ZM281.31 39.792C281.767 40.2773 282.355 40.52 283.074 40.52C283.793 40.52 284.376 40.2773 284.824 39.792C285.272 39.3067 285.496 38.7093 285.496 38C285.496 37.2907 285.272 36.6933 284.824 36.208C284.376 35.7227 283.793 35.48 283.074 35.48C282.355 35.48 281.767 35.7227 281.31 36.208C280.862 36.6933 280.638 37.2907 280.638 38C280.638 38.7093 280.862 39.3067 281.31 39.792ZM291.564 41.64C290.51 41.64 289.637 41.29 288.946 40.59C288.256 39.8807 287.91 39.0173 287.91 38C287.91 36.9827 288.256 36.124 288.946 35.424C289.637 34.7147 290.51 34.36 291.564 34.36C292.432 34.36 293.184 34.6027 293.818 35.088C294.453 35.564 294.878 36.1893 295.092 36.964H293.804C293.636 36.5067 293.356 36.1427 292.964 35.872C292.572 35.6013 292.106 35.466 291.564 35.466C290.846 35.466 290.258 35.7087 289.8 36.194C289.352 36.6793 289.128 37.2813 289.128 38C289.128 38.7187 289.352 39.3207 289.8 39.806C290.258 40.2913 290.846 40.534 291.564 40.534C292.106 40.534 292.572 40.3987 292.964 40.128C293.356 39.8573 293.636 39.4933 293.804 39.036H295.092C294.887 39.8107 294.467 40.4407 293.832 40.926C293.198 41.402 292.442 41.64 291.564 41.64ZM297.989 41.5V35.606H295.763V34.5H301.517V35.606H299.193V41.5H297.989ZM305.915 41.5V34.5H308.967C309.742 34.5 310.335 34.6727 310.745 35.018C311.156 35.3633 311.361 35.8253 311.361 36.404C311.361 36.9547 311.133 37.4073 310.675 37.762C311.441 38.1353 311.823 38.7047 311.823 39.47C311.823 40.058 311.613 40.5433 311.193 40.926C310.773 41.3087 310.143 41.5 309.303 41.5H305.915ZM307.119 40.45H309.373C309.747 40.45 310.041 40.3567 310.255 40.17C310.479 39.9833 310.591 39.7267 310.591 39.4C310.591 39.0733 310.479 38.8213 310.255 38.644C310.041 38.4573 309.747 38.364 309.373 38.364H307.119V40.45ZM307.119 37.398H309.065C309.784 37.398 310.143 37.0853 310.143 36.46C310.143 36.1333 310.041 35.9 309.835 35.76C309.63 35.6107 309.373 35.536 309.065 35.536H307.119V37.398ZM316.428 41.64C315.457 41.64 314.641 41.2853 313.978 40.576C313.325 39.8667 312.998 39.008 312.998 38C312.998 36.992 313.325 36.1333 313.978 35.424C314.641 34.7147 315.457 34.36 316.428 34.36C316.941 34.36 317.417 34.4767 317.856 34.71C318.304 34.934 318.649 35.2233 318.892 35.578V34.5H320.096V41.5H318.892V40.422C318.649 40.7767 318.304 41.0707 317.856 41.304C317.417 41.528 316.941 41.64 316.428 41.64ZM316.61 40.534C317.301 40.534 317.87 40.2913 318.318 39.806C318.766 39.3207 318.99 38.7187 318.99 38C318.99 37.2813 318.766 36.6793 318.318 36.194C317.87 35.7087 317.301 35.466 316.61 35.466C315.91 35.466 315.336 35.7087 314.888 36.194C314.44 36.6793 314.216 37.2813 314.216 38C314.216 38.7187 314.44 39.3207 314.888 39.806C315.336 40.2913 315.91 40.534 316.61 40.534ZM322.363 41.5V34.5H323.567V40.394H326.353V34.5H327.557V40.394H330.343V34.5H331.547V41.5H322.363ZM336.815 41.64C335.798 41.64 334.953 41.2947 334.281 40.604C333.619 39.9133 333.287 39.0453 333.287 38C333.287 36.9453 333.609 36.0773 334.253 35.396C334.907 34.7053 335.77 34.36 336.843 34.36C337.926 34.36 338.775 34.7427 339.391 35.508C340.007 36.2733 340.278 37.2113 340.203 38.322H334.505C334.524 38.9567 334.757 39.4887 335.205 39.918C335.653 40.338 336.195 40.548 336.829 40.548C337.781 40.548 338.458 40.156 338.859 39.372H340.091C339.914 40.0253 339.536 40.5667 338.957 40.996C338.379 41.4253 337.665 41.64 336.815 41.64ZM338.187 35.928C337.805 35.592 337.343 35.424 336.801 35.424C336.26 35.424 335.775 35.5873 335.345 35.914C334.925 36.2407 334.664 36.726 334.561 37.37H338.929C338.817 36.7353 338.57 36.2547 338.187 35.928ZM341.941 41.5V34.5H346.323V35.606H343.145V41.5H341.941ZM350.586 41.64C349.531 41.64 348.654 41.29 347.954 40.59C347.263 39.8807 346.918 39.0173 346.918 38C346.918 36.9827 347.263 36.124 347.954 35.424C348.654 34.7147 349.531 34.36 350.586 34.36C351.631 34.36 352.499 34.7147 353.19 35.424C353.89 36.124 354.24 36.9827 354.24 38C354.24 39.0173 353.89 39.8807 353.19 40.59C352.499 41.29 351.631 41.64 350.586 41.64ZM348.822 39.792C349.279 40.2773 349.867 40.52 350.586 40.52C351.304 40.52 351.888 40.2773 352.336 39.792C352.784 39.3067 353.008 38.7093 353.008 38C353.008 37.2907 352.784 36.6933 352.336 36.208C351.888 35.7227 351.304 35.48 350.586 35.48C349.867 35.48 349.279 35.7227 348.822 36.208C348.374 36.6933 348.15 37.2907 348.15 38C348.15 38.7093 348.374 39.3067 348.822 39.792ZM362.705 41.64C361.604 41.64 360.722 41.276 360.059 40.548C359.406 39.82 359.079 38.8633 359.079 37.678V36.964C359.079 35.2467 359.387 33.9633 360.003 33.114C360.619 32.2553 361.627 31.6907 363.027 31.42L365.631 30.944V32.092L363.293 32.526C362.294 32.7033 361.571 33.0393 361.123 33.534C360.684 34.0287 360.409 34.7567 360.297 35.718C360.904 34.906 361.762 34.5 362.873 34.5C363.928 34.5 364.772 34.836 365.407 35.508C366.051 36.18 366.373 37.0013 366.373 37.972C366.373 38.9987 366.023 39.8667 365.323 40.576C364.632 41.2853 363.76 41.64 362.705 41.64ZM360.969 39.806C361.417 40.282 361.996 40.52 362.705 40.52C363.414 40.52 363.998 40.282 364.455 39.806C364.912 39.33 365.141 38.7187 365.141 37.972C365.141 37.272 364.912 36.7027 364.455 36.264C364.007 35.816 363.433 35.592 362.733 35.592C362.014 35.592 361.426 35.8207 360.969 36.278C360.521 36.726 360.297 37.2907 360.297 37.972C360.297 38.7187 360.521 39.33 360.969 39.806ZM369.173 41.5H368.095V34.5H369.299V39.638L373.247 34.5H374.311V41.5H373.121V36.362L369.173 41.5ZM378.825 41.64C378.106 41.64 377.476 41.4627 376.935 41.108C376.403 40.7533 376.072 40.254 375.941 39.61H377.159C377.392 40.282 377.948 40.618 378.825 40.618C379.338 40.618 379.726 40.5107 379.987 40.296C380.248 40.0813 380.379 39.8013 380.379 39.456C380.379 39.1107 380.248 38.84 379.987 38.644C379.735 38.448 379.371 38.35 378.895 38.35H378.083V37.37H378.895C379.278 37.37 379.581 37.286 379.805 37.118C380.038 36.95 380.155 36.7027 380.155 36.376C380.155 36.0587 380.034 35.8113 379.791 35.634C379.548 35.4567 379.222 35.368 378.811 35.368C377.999 35.368 377.49 35.6947 377.285 36.348H376.095C376.226 35.704 376.543 35.214 377.047 34.878C377.551 34.5327 378.144 34.36 378.825 34.36C379.609 34.36 380.22 34.5467 380.659 34.92C381.098 35.284 381.317 35.746 381.317 36.306C381.317 36.9873 381.028 37.496 380.449 37.832C381.214 38.1773 381.597 38.7513 381.597 39.554C381.597 40.142 381.354 40.6367 380.869 41.038C380.384 41.4393 379.702 41.64 378.825 41.64ZM383.38 41.5V34.5H384.584V37.384H388.406V34.5H389.61V41.5H388.406V38.476H384.584V41.5H383.38ZM394.866 41.64C393.849 41.64 393.004 41.2947 392.332 40.604C391.669 39.9133 391.338 39.0453 391.338 38C391.338 36.9453 391.66 36.0773 392.304 35.396C392.957 34.7053 393.821 34.36 394.894 34.36C395.977 34.36 396.826 34.7427 397.442 35.508C398.058 36.2733 398.329 37.2113 398.254 38.322H392.556C392.575 38.9567 392.808 39.4887 393.256 39.918C393.704 40.338 394.245 40.548 394.88 40.548C395.832 40.548 396.509 40.156 396.91 39.372H398.142C397.965 40.0253 397.587 40.5667 397.008 40.996C396.429 41.4253 395.715 41.64 394.866 41.64ZM396.238 35.928C395.855 35.592 395.393 35.424 394.852 35.424C394.311 35.424 393.825 35.5873 393.396 35.914C392.976 36.2407 392.715 36.726 392.612 37.37H396.98C396.868 36.7353 396.621 36.2547 396.238 35.928ZM403.099 41.64C402.045 41.64 401.172 41.29 400.481 40.59C399.791 39.8807 399.445 39.0173 399.445 38C399.445 36.9827 399.791 36.124 400.481 35.424C401.172 34.7147 402.045 34.36 403.099 34.36C403.967 34.36 404.719 34.6027 405.353 35.088C405.988 35.564 406.413 36.1893 406.627 36.964H405.339C405.171 36.5067 404.891 36.1427 404.499 35.872C404.107 35.6013 403.641 35.466 403.099 35.466C402.381 35.466 401.793 35.7087 401.335 36.194C400.887 36.6793 400.663 37.2813 400.663 38C400.663 38.7187 400.887 39.3207 401.335 39.806C401.793 40.2913 402.381 40.534 403.099 40.534C403.641 40.534 404.107 40.3987 404.499 40.128C404.891 39.8573 405.171 39.4933 405.339 39.036H406.627C406.422 39.8107 406.002 40.4407 405.367 40.926C404.733 41.402 403.977 41.64 403.099 41.64ZM411.106 41.64C410.135 41.64 409.319 41.2853 408.656 40.576C408.003 39.8667 407.676 39.008 407.676 38C407.676 36.992 408.003 36.1333 408.656 35.424C409.319 34.7147 410.135 34.36 411.106 34.36C411.619 34.36 412.095 34.4767 412.534 34.71C412.982 34.934 413.327 35.2233 413.57 35.578V34.5H414.774V41.5H413.57V40.422C413.327 40.7767 412.982 41.0707 412.534 41.304C412.095 41.528 411.619 41.64 411.106 41.64ZM411.288 40.534C411.979 40.534 412.548 40.2913 412.996 39.806C413.444 39.3207 413.668 38.7187 413.668 38C413.668 37.2813 413.444 36.6793 412.996 36.194C412.548 35.7087 411.979 35.466 411.288 35.466C410.588 35.466 410.014 35.7087 409.566 36.194C409.118 36.6793 408.894 37.2813 408.894 38C408.894 38.7187 409.118 39.3207 409.566 39.806C410.014 40.2913 410.588 40.534 411.288 40.534Z" fill="#0F256B" fill-opacity="0.6"/>
<defs>
<linearGradient id="paint0_linear_704_9071" x1="23.5534" y1="43.3659" x2="2.82524" y2="25.6422" gradientUnits="userSpaceOnUse">
<stop stop-color="#126CE5"/>
<stop offset="0.498833" stop-color="#63A1FF"/>
<stop offset="0.717587" stop-color="#9CC6FF"/>
<stop offset="1" stop-color="white"/>
</linearGradient>
<linearGradient id="paint1_linear_704_9071" x1="50.2723" y1="32.926" x2="24.0921" y2="49.9511" gradientUnits="userSpaceOnUse">
<stop stop-color="#126CE5"/>
<stop offset="0.448163" stop-color="#5C9FFF"/>
<stop offset="1" stop-color="white"/>
</linearGradient>
<linearGradient id="paint2_linear_704_9071" x1="-8.19122" y1="16.1618" x2="-0.0639591" y2="-8.82045" gradientUnits="userSpaceOnUse">
<stop stop-color="#126CE5"/>
<stop offset="0.587377" stop-color="#82B4FF"/>
<stop offset="1" stop-color="white"/>
</linearGradient>
<linearGradient id="paint3_linear_704_9071" x1="34.6927" y1="8.19134" x2="50.4385" y2="30.0309" gradientUnits="userSpaceOnUse">
<stop stop-color="#126CE5"/>
<stop offset="0.457843" stop-color="#8DBEFF"/>
<stop offset="1" stop-color="white"/>
</linearGradient>
</defs>
</svg>
