<svg width="150" height="35" viewBox="0 0 150 35" fill="none" xmlns="http://www.w3.org/2000/svg">
<path d="M3.83651 18.221C5.04931 20.0755 5.7231 20.728 6.36319 21.3119C2.0173 27.3907 6.86852 30.6876 9.69841 30.5846C12.7304 30.4742 13.64 30.2755 26.0713 18.0149C26.4756 18.3927 27.3852 19.2513 28.4969 21.0028C25.9365 23.4412 20.5732 28.5446 19.603 29.4513C15.303 33.4694 13.0336 34.4997 9.69841 34.4997C3.83645 34.4997 -3.68289 26.9579 3.83651 18.221Z" fill="url(#paint0_linear_704_9179)"/>
<path d="M18.4986 9.34073C18.8378 8.93164 19.9233 7.8271 21.5514 6.68164C32.9483 17.7271 34.6782 21.3885 34.6782 25.3975C34.6782 31.3294 29.4885 34.4998 25.4182 34.4998C23.1795 34.4998 20.0657 33.3748 18.1934 31.7385C18.8378 31.2271 20.3303 29.9589 21.1444 28.9771C25.4182 32.3521 30.8114 30.3066 30.8114 25.3975C31.2184 21.3066 22.569 13.6362 18.4986 9.34073Z" fill="url(#paint1_linear_704_9179)"/>
<path d="M17.1636 3.18875L14.1108 5.67833C12.5844 4.48333 11.3633 4.18458 9.63344 4.18458C7.27265 4.18458 4.73254 5.77791 4.54553 9.16374C4.34201 12.8483 8.00531 15.7362 16.7565 24.6987C16.0239 25.575 14.5518 26.79 13.9073 27.2879C3.12091 17.23 0.678711 13.645 0.678711 9.16374C0.678711 3.10908 6.58069 0.5 9.63344 0.5C12.9915 0.5 15.5354 1.99375 17.1636 3.18875Z" fill="url(#paint2_linear_704_9179)"/>
<path d="M25.4677 0.5C22.1864 0.5 19.3653 0.891254 6.86035 13.118C8.16086 14.8786 9.46138 15.9545 9.46138 15.9545C17.8647 8.22727 21.6662 4.1191 25.4677 4.1191C28.5889 4.04085 33.3708 7.64039 29.0691 12.9223C29.0691 12.9223 29.5693 13.3136 31.6701 15.9545C33.5909 14.1548 34.5503 11.4551 34.6713 8.91197C34.8621 4.90161 31.27 0.5 25.4677 0.5Z" fill="url(#paint3_linear_704_9179)"/>
<path d="M145.196 23.0001V15.2315H142.501V13.3572H150.001V15.2315H147.278V23.0001H145.196Z" fill="white"/>
<path d="M136.072 23.0001V13.3572H141.429V15.2315H137.87V17.228H140.661V19.1022H137.87V23.0001H136.072Z" fill="white"/>
<path d="M131.787 23.0001V13.3572H133.93V23.0001H131.787Z" fill="white"/>
<path d="M124.286 23.0001V13.3572H126.362V21.1258H130.715V23.0001H124.286Z" fill="white"/>
<path d="M118.93 20.8573V18.7145H123.215V20.8573H118.93Z" fill="white"/>
<path d="M107.144 13.3572H108.897L111.965 17.6625L115.033 13.3572H116.786V23.0001H114.86V16.7254L111.965 20.7863L109.069 16.7254V23.0001H107.144V13.3572Z" fill="white"/>
<path d="M101.251 23.0001C100.135 23.0001 99.2311 22.6439 98.539 21.9316C97.847 21.2193 97.501 20.2755 97.501 19.1002V13.3572H99.3825V19.1269C99.3825 19.7502 99.5511 20.2399 99.8885 20.596C100.226 20.9522 100.68 21.1303 101.251 21.1303C101.822 21.1303 102.276 20.9522 102.613 20.596C102.951 20.2399 103.119 19.7502 103.119 19.1269V13.3572H105.001V19.1002C105.001 20.2666 104.651 21.2104 103.95 21.9316C103.249 22.6439 102.35 23.0001 101.251 23.0001Z" fill="white"/>
<path d="M91.6236 23.0001V15.2315H88.9287V13.3572H96.4287V15.2315H93.7053V23.0001H91.6236Z" fill="white"/>
<path d="M87.8576 23.0001H86.1676L81.2465 16.7118V23.0001H79.2861V13.3572H80.9761L85.8972 19.6454V13.3572H87.8576V23.0001Z" fill="white"/>
<path d="M68.5723 23.0001L72.549 13.3572H74.2254L78.2151 23.0001H76.2398L75.3431 20.7999H71.4053L70.5216 23.0001H68.5723ZM73.3807 15.9513L72.1071 19.075H74.6413L73.3807 15.9513Z" fill="white"/>
<path d="M63.751 23.0001C62.6351 23.0001 61.7311 22.6439 61.039 21.9316C60.347 21.2193 60.001 20.2755 60.001 19.1002V13.3572H61.8825V19.1269C61.8825 19.7502 62.0512 20.2399 62.3885 20.596C62.7259 20.9522 63.18 21.1303 63.751 21.1303C64.3219 21.1303 64.7761 20.9522 65.1134 20.596C65.4508 20.2399 65.6195 19.7502 65.6195 19.1269V13.3572H67.501V19.1002C67.501 20.2666 67.1506 21.2104 66.4499 21.9316C65.7492 22.6439 64.8496 23.0001 63.751 23.0001Z" fill="white"/>
<path d="M53.2153 23.0001C51.8346 23.0001 50.6537 22.5315 49.6727 21.5944C48.7008 20.6485 48.2148 19.5099 48.2148 18.1786C48.2148 16.8474 48.7008 15.7132 49.6727 14.776C50.6537 13.8302 51.8346 13.3572 53.2153 13.3572C54.5959 13.3572 55.7722 13.8302 56.7442 14.776C57.7252 15.7132 58.2157 16.8474 58.2157 18.1786C58.2157 19.1158 57.9522 19.9872 57.4254 20.793L60.0006 22.8424H57.221L56.2128 22.041C55.3499 22.6804 54.3507 23.0001 53.2153 23.0001ZM53.2153 21.1608C53.7512 21.1608 54.2326 21.0382 54.6595 20.793L53.2425 19.65L54.3734 18.3363L55.8858 19.5581C56.1129 19.1289 56.2264 18.6691 56.2264 18.1786C56.2264 17.3554 55.9312 16.6547 55.3408 16.0767C54.7594 15.4898 54.0509 15.1964 53.2153 15.1964C52.3796 15.1964 51.6665 15.4898 51.0761 16.0767C50.4948 16.6547 50.2041 17.3554 50.2041 18.1786C50.2041 19.0019 50.4948 19.707 51.0761 20.2938C51.6665 20.8718 52.3796 21.1608 53.2153 21.1608Z" fill="white"/>
<defs>
<linearGradient id="paint0_linear_704_9179" x1="15.4592" y1="28.1119" x2="2.21101" y2="17.0302" gradientUnits="userSpaceOnUse">
<stop stop-color="white"/>
<stop offset="1" stop-color="white" stop-opacity="0"/>
</linearGradient>
<linearGradient id="paint1_linear_704_9179" x1="35.4923" y1="21.4089" x2="14.2827" y2="32.1633" gradientUnits="userSpaceOnUse">
<stop stop-color="white"/>
<stop offset="1" stop-color="white" stop-opacity="0"/>
</linearGradient>
<linearGradient id="paint2_linear_704_9179" x1="-4.918" y1="10.5579" x2="0.0675214" y2="-5.84179" gradientUnits="userSpaceOnUse">
<stop stop-color="white"/>
<stop offset="1" stop-color="white" stop-opacity="0"/>
</linearGradient>
<linearGradient id="paint3_linear_704_9179" x1="22.0663" y1="5.48849" x2="32.2808" y2="18.7213" gradientUnits="userSpaceOnUse">
<stop stop-color="white"/>
<stop offset="1" stop-color="white" stop-opacity="0"/>
</linearGradient>
</defs>
</svg>
