<svg width="46" height="46" viewBox="0 0 46 46" fill="none" xmlns="http://www.w3.org/2000/svg">
<ellipse cx="22.7352" cy="22.9692" rx="22.5" ry="22.5" fill="white"/>
<path fill-rule="evenodd" clip-rule="evenodd" d="M28.121 28.9582L30.6102 16.2401C30.6102 15.3904 29.4609 15.9035 29.4609 15.9091L15.4735 21.4653C15.4735 21.4653 14.8089 21.6915 14.8634 22.1164C14.9179 22.5412 15.4571 22.7343 15.4571 22.7343L18.9758 23.9316L20.477 24.6643C20.2827 24.0423 20.1063 23.4761 20.1063 23.4761L25.7686 19.9595C25.7686 19.9595 26.0972 19.7667 26.0826 19.9595C26.0826 19.9595 26.141 19.9952 25.9658 20.1523C25.7905 20.3129 21.5192 24.0688 21.5192 24.0688L21.2745 26.0924L21.2117 26.6357C21.3394 26.6928 21.4599 26.6036 21.4599 26.6036L22.2659 25.8834L26.8138 29.4161C27.7724 29.841 28.121 28.9582 28.121 28.9582Z" fill="url(#paint0_linear_848_3644)"/>
<defs>
<linearGradient id="paint0_linear_848_3644" x1="14.8602" y1="15.7505" x2="30.1813" y2="18.3141" gradientUnits="userSpaceOnUse">
<stop stop-color="#007CFF"/>
<stop offset="0.994833" stop-color="#094AC8"/>
</linearGradient>
</defs>
</svg>
