<svg width="46" height="45" viewBox="0 0 46 45" fill="none" xmlns="http://www.w3.org/2000/svg">
<ellipse opacity="0.1" cx="23" cy="22.5" rx="22.5" ry="22.5" fill="white"/>
<path fill-rule="evenodd" clip-rule="evenodd" d="M28.3858 28.4889L30.875 15.7709C30.875 14.9212 29.7257 15.4343 29.7257 15.4398L15.7382 20.996C15.7382 20.996 15.0737 21.2223 15.1282 21.6471C15.1826 22.072 15.7219 22.2651 15.7219 22.2651L19.2405 23.4624L20.7418 24.1951C20.5475 23.5731 20.3711 23.0069 20.3711 23.0069L26.0334 19.4902C26.0334 19.4902 26.362 19.2974 26.3474 19.4902C26.3474 19.4902 26.4058 19.5259 26.2305 19.683C26.0553 19.8437 21.7839 23.5995 21.7839 23.5995L21.5393 25.6231L21.4764 26.1665C21.6042 26.2236 21.7247 26.1344 21.7247 26.1344L22.5307 25.4142L27.0785 28.9469C28.0372 29.3717 28.3858 28.4889 28.3858 28.4889Z" fill="white"/>
</svg>
