<svg width="46" height="46" viewBox="0 0 46 46" fill="none" xmlns="http://www.w3.org/2000/svg">
<ellipse cx="23.0071" cy="22.9692" rx="22.5" ry="22.5" fill="url(#paint0_linear_848_3651)"/>
<path fill-rule="evenodd" clip-rule="evenodd" d="M28.3929 28.9582L30.8821 16.2401C30.8821 15.3904 29.7328 15.9035 29.7328 15.9091L15.7453 21.4653C15.7453 21.4653 15.0808 21.6915 15.1353 22.1164C15.1897 22.5412 15.729 22.7343 15.729 22.7343L19.2476 23.9316L20.7489 24.6643C20.5546 24.0423 20.3782 23.4761 20.3782 23.4761L26.0405 19.9595C26.0405 19.9595 26.369 19.7667 26.3544 19.9595C26.3544 19.9595 26.4128 19.9952 26.2376 20.1523C26.0624 20.3129 21.791 24.0688 21.791 24.0688L21.5464 26.0924L21.4835 26.6357C21.6113 26.6928 21.7318 26.6036 21.7318 26.6036L22.5378 25.8834L27.0856 29.4161C28.0443 29.841 28.3929 28.9582 28.3929 28.9582Z" fill="white"/>
<defs>
<linearGradient id="paint0_linear_848_3651" x1="0.50708" y1="0.469238" x2="44.5627" y2="6.91949" gradientUnits="userSpaceOnUse">
<stop stop-color="#007CFF"/>
<stop offset="0.994833" stop-color="#094AC8"/>
</linearGradient>
</defs>
</svg>
