<svg width="46" height="45" viewBox="0 0 46 45" fill="none" xmlns="http://www.w3.org/2000/svg">
<ellipse opacity="0.4" cx="23" cy="22.5" rx="22.5" ry="22.5" fill="#C9E0FF"/>
<path fill-rule="evenodd" clip-rule="evenodd" d="M28.3858 28.489L30.875 15.7709C30.875 14.9212 29.7257 15.4344 29.7257 15.4399L15.7382 20.9961C15.7382 20.9961 15.0737 21.2223 15.1282 21.6472C15.1826 22.072 15.7219 22.2651 15.7219 22.2651L19.2405 23.4625L20.7418 24.1951C20.5475 23.5731 20.3711 23.0069 20.3711 23.0069L26.0334 19.4903C26.0334 19.4903 26.362 19.2975 26.3474 19.4903C26.3474 19.4903 26.4058 19.526 26.2305 19.6831C26.0553 19.8437 21.7839 23.5996 21.7839 23.5996L21.5393 25.6232L21.4764 26.1665C21.6042 26.2237 21.7247 26.1344 21.7247 26.1344L22.5307 25.4142L27.0785 28.9469C28.0372 29.3718 28.3858 28.489 28.3858 28.489Z" fill="url(#paint0_linear_704_9095)"/>
<defs>
<linearGradient id="paint0_linear_704_9095" x1="15.125" y1="15.2813" x2="30.446" y2="17.8449" gradientUnits="userSpaceOnUse">
<stop stop-color="#007CFF"/>
<stop offset="0.994833" stop-color="#094AC8"/>
</linearGradient>
</defs>
</svg>
